<?xml version="1.0" encoding="utf-8"?>
<!-- Generator: Adobe Illustrator 16.0.0, SVG Export Plug-In . SVG Version: 6.00 Build 0)  -->
<!DOCTYPE svg PUBLIC "-//W3C//DTD SVG 1.1//EN" "http://www.w3.org/Graphics/SVG/1.1/DTD/svg11.dtd">
<svg version="1.1" id="Layer_1" xmlns="http://www.w3.org/2000/svg" xmlns:xlink="http://www.w3.org/1999/xlink" x="0px" y="0px"
	 width="109.588px" height="127.372px" viewBox="0 0 109.588 127.372" enable-background="new 0 0 109.588 127.372"
	 xml:space="preserve">
<g>
	<ellipse fill="#EFEFF9" cx="71.794" cy="80.692" rx="37.794" ry="35.617"/>
	<ellipse fill="#EFEFF9" cx="25.975" cy="67.479" rx="25.975" ry="24.479"/>
	<ellipse fill="#EFEFF9" cx="42.201" cy="15.268" rx="16.201" ry="15.268"/>
	<path fill="#FBE594" d="M90.37,47.063c0-19.809-15.889-35.868-35.699-35.868c-19.809,0-35.879,16.06-35.879,35.868
		c0,14.056,7.852,19.884,19.852,32.099v11.082c0,5.333,4.703,11.639,9.719,11.639h15.14c5.016,0,8.142-6.306,8.142-11.639V78.381
		C84.644,62.72,90.37,60.522,90.37,47.063z"/>
	<g>
		<g>
			<path fill="#320392" d="M71.77,14.241c-19.845-9.756-43.246-0.879-51.713,19.466c-3.917,9.411-3.355,20.221,2.33,28.711
				c2.952,4.409,7.007,8.079,10.787,11.754c1.266,1.229,5.605,4.265,5.839,5.926c0.246,1.747,0.491,3.494,0.737,5.241
				c0.734,5.22,0.109,16.49,7.427,17.177c5.659,0.531,11.886,0.548,17.543-0.009c7.699-0.757,8.584-10.642,7.424-16.393
				c-0.364-1.806-0.729-3.611-1.092-5.416c-0.498-2.47-0.053-1.881,1.696-3.931c3.973-4.653,8.449-8.836,12.491-13.424
				c7.645-8.678,7.632-19.863,3.591-30.347c-0.517-1.339-2.692-0.758-2.17,0.598c4.287,11.122,3.469,21.08-4.536,29.858
				c-3.608,3.957-7.435,7.694-10.968,11.725c-2.773,3.164-2.858,3.225-2.112,6.925c0.561,2.779,1.121,5.56,1.682,8.339
				c0.84,4.163-3.233,9.544-7.224,9.937c-0.833,0.082-1.718,0-2.554,0c-3.344,0-6.688,0-10.033,0c-0.851,0-1.702,0-2.553,0
				c-4.942,0-5.516-6.203-5.612-9.71c-0.11-4.006-0.305-10.406-3.169-13.335c-8.272-8.46-18.791-16.055-19.755-28.793
				C17.802,21.79,47.865,4.991,70.635,16.183C71.932,16.821,73.072,14.88,71.77,14.241L71.77,14.241z"/>
		</g>
	</g>
	<path fill="#F9BD90" stroke="#320392" stroke-width="2" stroke-miterlimit="10" d="M72.644,94.396c0,1.816-1.066,2.486-2.598,2.486
		H40.128c-1.53,0-2.484-0.67-2.484-2.486v-0.438c0-1.817,0.954-3.075,2.484-3.075h29.918c1.531,0,2.598,1.258,2.598,3.075V94.396z"
		/>
	<path fill="#F9BD90" stroke="#320392" stroke-width="2" stroke-miterlimit="10" d="M72.644,101.29c0,1.817-1.066,3.592-2.598,3.592
		H40.128c-1.53,0-2.484-1.774-2.484-3.592v-0.438c0-1.817,0.954-3.97,2.484-3.97h29.918c1.531,0,2.598,2.152,2.598,3.97V101.29z"/>
	<g>
		<g>
			<path fill="#320392" d="M45.238,111.327c6.183,0,12.366,0,18.55,0c1.451,0,1.451-2.25,0-2.25c-6.184,0-12.367,0-18.55,0
				C43.787,109.077,43.787,111.327,45.238,111.327L45.238,111.327z"/>
		</g>
	</g>
	<circle fill="#320392" stroke="#320392" stroke-width="2" stroke-miterlimit="10" cx="54.718" cy="121.078" r="5.294"/>
	<polyline fill="none" stroke="#320392" stroke-width="2" stroke-miterlimit="10" points="53.644,90.882 53.644,56.194 
		62.384,47.56 	"/>
	<line fill="none" stroke="#320392" stroke-width="2" stroke-miterlimit="10" x1="54.595" y1="56.194" x2="45.997" y2="47.597"/>
	<path fill="#F49453" stroke="#320392" stroke-width="2" stroke-miterlimit="10" d="M72.644,87.502c0,1.815-1.066,3.38-2.598,3.38
		H40.128c-1.53,0-2.484-1.564-2.484-3.38v-0.439c0-1.817,0.954-3.181,2.484-6.181h29.918c1.531,3,2.598,4.363,2.598,6.181V87.502z"
		/>
</g>
</svg>
