<?xml version="1.0" encoding="utf-8"?>
<!-- Generator: Adobe Illustrator 16.0.0, SVG Export Plug-In . SVG Version: 6.00 Build 0)  -->
<!DOCTYPE svg PUBLIC "-//W3C//DTD SVG 1.1//EN" "http://www.w3.org/Graphics/SVG/1.1/DTD/svg11.dtd">
<svg version="1.1" id="Layer_1" xmlns="http://www.w3.org/2000/svg" xmlns:xlink="http://www.w3.org/1999/xlink" x="0px" y="0px"
	 width="133.172px" height="133.531px" viewBox="0 0 133.172 133.531" enable-background="new 0 0 133.172 133.531"
	 xml:space="preserve">
<g>
	<ellipse fill="#EFEFF9" cx="49.256" cy="97.914" rx="37.794" ry="35.617"/>
	<ellipse fill="#EFEFF9" cx="92.317" cy="48.799" rx="40.855" ry="38.5"/>
	<ellipse fill="#EFEFF9" cx="22.525" cy="49.303" rx="22.525" ry="21.228"/>
	<circle fill="#FCEBBE" cx="63.828" cy="71.391" r="53.389"/>
	<g>
		<g>
			<path fill="#320392" d="M51.171,20.675c12.336-2.85,24.782-1.516,36.17,4.03c1.298,0.633,2.439-1.307,1.135-1.942
				c-11.952-5.822-24.953-7.249-37.903-4.257C49.159,18.832,49.759,21.001,51.171,20.675L51.171,20.675z"/>
		</g>
	</g>
	<g>
		<g>
			<path fill="#320392" d="M12.443,80.983C8.263,56.84,20.859,33.531,43.075,23.4c1.319-0.601,0.174-2.54-1.136-1.942
				C18.751,32.031,5.931,56.499,10.273,81.581C10.521,83.008,12.689,82.402,12.443,80.983L12.443,80.983z"/>
		</g>
	</g>
	<g>
		<g>
			<path fill="#320392" d="M104.544,104.168c-10.837,13.025-26.465,19.993-43.399,19.425c-18.645-0.626-35.304-12.268-43.908-28.484
				c-0.68-1.282-2.622-0.146-1.942,1.135c8.656,16.316,24.281,27.021,42.58,29.338c18.298,2.316,36.62-5.83,48.261-19.821
				C107.056,104.653,105.474,103.052,104.544,104.168L104.544,104.168z"/>
		</g>
	</g>
	<g>
		<g>
			<path fill="#320392" d="M107.288,42.341c5.858,9.058,8.806,19.149,8.8,29.936c-0.001,1.451,2.249,1.451,2.25,0
				c0.006-11.148-3.051-21.707-9.106-31.072C108.446,39.992,106.498,41.118,107.288,42.341L107.288,42.341z"/>
		</g>
	</g>
	<circle fill="#FBE594" cx="63.585" cy="71.15" r="41.534"/>
	<circle fill="#F9BD90" cx="63.639" cy="71.203" r="29.007"/>
	<circle fill="#F49453" cx="63.478" cy="69.107" r="16.266"/>
	<g>
		<g>
			<path fill="#320392" d="M102.449,26.642c0.44,1.008,1.663,2.09,2.717,2.405l9.931,2.969c1.054,0.315,2.52-0.095,3.256-0.912
				l10.648-11.795c0.736-0.816,0.446-1.59-0.646-1.719l-11.817-1.397c-1.093-0.129-2.203-1.108-2.469-2.176l-2.994-12.061
				c-0.266-1.067-1.086-1.273-1.822-0.457L98.604,13.293c-0.736,0.816-0.979,2.309-0.539,3.317L102.449,26.642z"/>
			<path fill="none" stroke="#320392" stroke-width="2" stroke-miterlimit="10" d="M102.449,26.642
				c0.44,1.008,1.663,2.09,2.717,2.405l9.931,2.969c1.054,0.315,2.52-0.095,3.256-0.912l10.648-11.795
				c0.736-0.816,0.446-1.59-0.646-1.719l-11.817-1.397c-1.093-0.129-2.203-1.108-2.469-2.176l-2.994-12.061
				c-0.266-1.067-1.086-1.273-1.822-0.457L98.604,13.293c-0.736,0.816-0.979,2.309-0.539,3.317L102.449,26.642z"/>
		</g>
		<path fill="#FFFFFF" stroke="#320392" stroke-width="2" stroke-miterlimit="10" d="M93.912,42.175
			c-15.285,16.954-28.7,29.776-29.962,28.639c-1.263-1.137,10.105-15.801,25.392-32.755c15.287-16.955,28.085-30.072,29.508-31.14
			c1.055-0.793,5.075,1.507,3.204,3.978C117.739,16.588,104.273,30.683,93.912,42.175z"/>
	</g>
	<g>
		<g>
			<path fill="#320392" d="M35.721,42.474c12.618-11.809,30.706-14.579,46.307-7.073c1.301,0.626,2.442-1.313,1.135-1.942
				c-16.532-7.955-35.638-5.112-49.033,7.424C33.069,41.876,34.663,43.464,35.721,42.474L35.721,42.474z"/>
		</g>
	</g>
	<g>
		<g>
			<path fill="#320392" d="M97.469,49.043c15.692,24.505,1.823,56.847-26.676,62.341c-29.556,5.698-53.443-23.486-45.705-51.432
				c0.388-1.401-1.783-1.995-2.17-0.599c-8.211,29.656,16.201,58.285,46.81,54.456c31.123-3.893,46.131-40.219,29.685-65.903
				C98.632,46.69,96.684,47.817,97.469,49.043L97.469,49.043z"/>
		</g>
	</g>
	<g>
		<g>
			<path fill="#320392" d="M40.967,86.658c-6.922-10.513-6.433-23.662,1.569-33.395c6.755-8.215,20.26-12.531,30.119-7.876
				c1.304,0.616,2.446-1.323,1.135-1.942c-11.101-5.242-24.949-0.542-32.845,8.227c-9.041,10.042-9.161,25.125-1.92,36.121
				C39.819,88.999,41.768,87.873,40.967,86.658L40.967,86.658z"/>
		</g>
	</g>
	<g>
		<g>
			<path fill="#320392" d="M88.497,58.409c3.933,7.105,2.317,18.363-1.197,25.325c-4.195,8.309-12.838,13.519-21.942,14.387
				c-1.431,0.137-1.444,2.388,0,2.25C75.136,99.438,83.399,94.324,88.605,86c2.692-4.305,3.886-9.376,4.114-14.396
				c0.22-4.837,0.1-10.032-2.279-14.331C89.737,56.003,87.794,57.138,88.497,58.409L88.497,58.409z"/>
		</g>
	</g>
	<g>
		<g>
			<path fill="#320392" d="M71.672,82.078c-9.844,5.537-21.625-0.212-22.956-11.505C47.505,60.304,59.121,50.959,68.82,55.241
				c1.314,0.581,2.46-1.358,1.135-1.942c-11.78-5.2-23.876,5.296-23.489,17.274c0.43,13.304,15.671,19.449,26.341,13.448
				C74.071,83.309,72.938,81.366,71.672,82.078L71.672,82.078z"/>
		</g>
	</g>
	<g>
		<g>
			<path fill="#320392" d="M77.875,64.464c1.326,3.533,1.019,7.496-0.456,10.977c-0.559,1.319,1.379,2.467,1.943,1.135
				c1.701-4.014,2.229-8.589,0.683-12.709C79.54,62.521,77.364,63.104,77.875,64.464L77.875,64.464z"/>
		</g>
	</g>
</g>
</svg>
