<?xml version="1.0" encoding="utf-8"?>
<!-- Generator: Adobe Illustrator 16.0.0, SVG Export Plug-In . SVG Version: 6.00 Build 0)  -->
<!DOCTYPE svg PUBLIC "-//W3C//DTD SVG 1.1//EN" "http://www.w3.org/Graphics/SVG/1.1/DTD/svg11.dtd">
<svg version="1.1" id="Layer_1" xmlns="http://www.w3.org/2000/svg" xmlns:xlink="http://www.w3.org/1999/xlink" x="0px" y="0px"
	 width="138.501px" height="130.312px" viewBox="0 0 138.501 130.312" enable-background="new 0 0 138.501 130.312"
	 xml:space="preserve">
<g>
	<ellipse fill="#EFEFF9" cx="37.794" cy="94.694" rx="37.794" ry="35.617"/>
	<ellipse fill="#EFEFF9" cx="101.658" cy="85.854" rx="32.658" ry="30.775"/>
	<ellipse fill="#EFEFF9" cx="62.271" cy="23.815" rx="25.271" ry="23.815"/>
	<polygon fill="#FFFFFF" points="111.644,115.884 20.644,114.884 20.644,32.009 31.998,20.514 38.644,13.884 111.644,12.884 	"/>
	<g>
		<g>
			<g>
				<path fill="#320392" d="M109.519,93.884c0,7,0,14,0,21c0.375-0.375,0.75-0.75,1.125-1.125c-30,0-60,0-90,0
					c0.375,0.375,0.75,0.75,1.125,1.125c0-24.752,0-49.504,0-74.256c0-2.039,0-4.078,0-6.116c0-0.584,0-1.168,0-1.752
					c0-0.917,0.215-0.5-0.07-0.214c4.121-4.12,8.191-8.292,12.284-12.439c1.613-1.635,3.227-3.271,4.84-4.905
					c0.675-0.684-0.524-0.191,0.111-0.191c0.6,0,1.2,0,1.799,0c5.526,0,11.052,0,16.578,0c17.778,0,35.556,0,53.333,0
					c-0.375-0.375-0.75-0.75-1.125-1.125c0,7.583,0,15.167,0,22.75c0,1.451,2.25,1.451,2.25,0c0-7.583,0-15.167,0-22.75
					c0-0.613-0.512-1.125-1.125-1.125c-23.624,0-47.249,0-70.874,0c-2.919,0-4.854,3.197-6.759,5.127
					c-4.14,4.196-8.254,8.419-12.422,12.587c-1.804,1.804-1.07,4.814-1.07,7.222c0,6.268,0,12.535,0,18.803
					c0,19.462,0,38.924,0,58.386c0,0.613,0.512,1.125,1.125,1.125c30,0,60,0,90,0c0.613,0,1.125-0.512,1.125-1.125c0-7,0-14,0-21
					C111.769,92.433,109.519,92.433,109.519,93.884L109.519,93.884z"/>
			</g>
		</g>
		<g>
			<g>
				<path fill="#320392" d="M37.519,14.509c0,5.792,0,11.583,0,17.375c0.375-0.375,0.75-0.75,1.125-1.125
					c-5.813,0-11.625,0-17.438,0c-1.451,0-1.451,2.25,0,2.25c5.813,0,11.625,0,17.438,0c0.613,0,1.125-0.512,1.125-1.125
					c0-5.792,0-11.583,0-17.375C39.769,13.058,37.519,13.058,37.519,14.509L37.519,14.509z"/>
			</g>
		</g>
	</g>
	<g>
		
			<rect x="113.463" y="77.527" transform="matrix(0.6914 -0.7224 0.7224 0.6914 -26.7308 110.0496)" fill="#FFFFFF" stroke="#320392" stroke-width="2" stroke-miterlimit="10" width="4" height="17.58"/>
		<g>
			<path fill="#94CBF7" d="M136.887,101.294c0.794,0.761,0.822,2.033,0.061,2.827l-2.766,2.889
				c-0.762,0.794-2.034,0.822-2.828,0.062l-16.154-15.469c-0.794-0.761-0.822-2.033-0.062-2.827l2.768-2.89
				c0.761-0.794,2.033-0.822,2.827-0.062L136.887,101.294z"/>
			<path fill="none" stroke="#320392" stroke-width="2" stroke-miterlimit="10" d="M136.887,101.294
				c0.794,0.761,0.822,2.033,0.061,2.827l-2.766,2.889c-0.762,0.794-2.034,0.822-2.828,0.062l-16.154-15.469
				c-0.794-0.761-0.822-2.033-0.062-2.827l2.768-2.89c0.761-0.794,2.033-0.822,2.827-0.062L136.887,101.294z"/>
		</g>
	</g>
	<circle fill="#D7F5FF" stroke="#320392" stroke-width="2" stroke-miterlimit="10" cx="92.477" cy="64.717" r="25.333"/>
	<g>
		<path fill="#FFFFFF" stroke="#320392" stroke-width="2" stroke-miterlimit="10" d="M110.36,65.313
			c-20.604,18.335-36.217,0-36.217,0S89.757,46.979,110.36,65.313L110.36,65.313z"/>
		
			<ellipse fill="#94CBF7" stroke="#320392" stroke-width="2" stroke-miterlimit="10" cx="92.219" cy="65.101" rx="7.189" ry="7.763"/>
		
			<ellipse fill="#FFFFFF" stroke="#320392" stroke-width="2" stroke-miterlimit="10" cx="92.415" cy="65.363" rx="2.491" ry="2.691"/>
	</g>
	<g>
		<g>
			<path fill="#320392" d="M28.644,53.009c11,0,22,0,33,0c1.451,0,1.451-2.25,0-2.25c-11,0-22,0-33,0
				C27.192,50.759,27.192,53.009,28.644,53.009L28.644,53.009z"/>
		</g>
	</g>
	<g>
		<g>
			<path fill="#320392" d="M56.644,28.009c8.778,0,17.556,0,26.333,0c1.451,0,1.451-2.25,0-2.25c-8.777,0-17.555,0-26.333,0
				C55.192,25.759,55.192,28.009,56.644,28.009L56.644,28.009z"/>
		</g>
	</g>
	<g>
		<g>
			<path fill="#320392" d="M28.644,91.009c13.778,0,27.555,0,41.333,0c1.451,0,1.451-2.25,0-2.25c-13.778,0-27.555,0-41.333,0
				C27.192,88.759,27.192,91.009,28.644,91.009L28.644,91.009z"/>
		</g>
	</g>
	<g>
		<g>
			<path fill="#320392" d="M28.644,101.009c24.833,0,49.667,0,74.5,0c1.451,0,1.451-2.25,0-2.25c-24.833,0-49.667,0-74.5,0
				C27.192,98.759,27.192,101.009,28.644,101.009L28.644,101.009z"/>
		</g>
	</g>
	<g>
		<g>
			<path fill="#320392" d="M28.644,63.009c10.222,0,20.445,0,30.667,0c1.451,0,1.451-2.25,0-2.25c-10.222,0-20.445,0-30.667,0
				C27.192,60.759,27.192,63.009,28.644,63.009L28.644,63.009z"/>
		</g>
	</g>
	<g>
		<g>
			<path fill="#320392" d="M28.644,73.009c10.222,0,20.445,0,30.667,0c1.451,0,1.451-2.25,0-2.25c-10.222,0-20.445,0-30.667,0
				C27.192,70.759,27.192,73.009,28.644,73.009L28.644,73.009z"/>
		</g>
	</g>
	<g>
		<g>
			<path fill="#320392" d="M28.644,82.009c11.333,0,22.667,0,34.001,0c1.451,0,1.451-2.25,0-2.25c-11.333,0-22.667,0-34.001,0
				C27.192,79.759,27.192,82.009,28.644,82.009L28.644,82.009z"/>
		</g>
	</g>
</g>
</svg>
