<?xml version="1.0" encoding="utf-8"?>
<!-- Generator: Adobe Illustrator 16.0.0, SVG Export Plug-In . SVG Version: 6.00 Build 0)  -->
<!DOCTYPE svg PUBLIC "-//W3C//DTD SVG 1.1//EN" "http://www.w3.org/Graphics/SVG/1.1/DTD/svg11.dtd">
<svg version="1.1" id="Layer_1" xmlns="http://www.w3.org/2000/svg" xmlns:xlink="http://www.w3.org/1999/xlink" x="0px" y="0px"
	 width="124.95px" height="131.458px" viewBox="0 0 124.95 131.458" enable-background="new 0 0 124.95 131.458"
	 xml:space="preserve">
<g>
	<ellipse fill="#EFEFF9" cx="37.794" cy="86.769" rx="37.794" ry="35.617"/>
	<ellipse fill="#EFEFF9" cx="98.975" cy="94.556" rx="25.975" ry="24.479"/>
	<ellipse fill="#EFEFF9" cx="79.335" cy="27.746" rx="19.089" ry="17.99"/>
	<g>
		<circle fill="#BA85FE" cx="83.248" cy="38.092" r="10.925"/>
		<text transform="matrix(1 0 0 1 79.7617 41.9976)" font-family="'NotoSans-Regular'" font-size="13.0552">$</text>
		<g>
			<g>
				<g>
					<path d="M75.132,36.067c0.968,0,0.968-1.5,0-1.5S74.164,36.067,75.132,36.067L75.132,36.067z"/>
				</g>
			</g>
			<g>
				<g>
					<path d="M74.028,37.752c0.008,1.137,0.109,2.274,0.465,3.359c0.301,0.915,1.749,0.523,1.447-0.398
						c-0.317-0.967-0.405-1.948-0.412-2.961C75.521,36.786,74.021,36.785,74.028,37.752L74.028,37.752z"/>
				</g>
			</g>
		</g>
	</g>
	<g>
		<g>
			<path fill="#320392" d="M76.924,30.602c2.235-2.549,6.548-2.624,9.528-1.772c4.892,1.397,7.207,6.796,6.346,11.46
				c-2,10.824-19.364,9.304-19.339-1.655c0.003-1.451-2.247-1.451-2.25,0c-0.028,12.374,18.57,15.757,23.087,4.239
				c2.009-5.123,0.721-11.558-4.166-14.67c-4.168-2.655-11.18-3.317-14.798,0.807C74.38,30.097,75.965,31.694,76.924,30.602
				L76.924,30.602z"/>
		</g>
	</g>
	<text transform="matrix(1 0 0 1 79.7617 41.9976)" fill="#FFFFFF" font-family="'NotoSans-Regular'" font-size="13.0552">$</text>
	<g>
		<g>
			<g>
				<path fill="#320392" d="M75.132,36.067c0.968,0,0.968-1.5,0-1.5S74.164,36.067,75.132,36.067L75.132,36.067z"/>
			</g>
		</g>
		<g>
			<g>
				<path fill="#320392" d="M74.028,37.752c0.008,1.137,0.109,2.274,0.465,3.359c0.301,0.915,1.749,0.523,1.447-0.398
					c-0.317-0.967-0.405-1.948-0.412-2.961C75.521,36.786,74.021,36.785,74.028,37.752L74.028,37.752z"/>
			</g>
		</g>
	</g>
	<g>
		<path fill="#FFFFFF" d="M91.642,63.958c0.55,0,1.187-0.608,1.414-1.108l4.798-10.765c0.228-0.5-0.036-1.126-0.586-1.126h-5.994
			c-0.55,0-1.194,0.523-1.432,1.019l-1.505,3.202c-0.237,0.496-0.787,0.931-1.222,0.931s-0.781-0.435-0.77-0.985l0.059-3.057
			c0.012-0.55-0.43-1.11-0.979-1.11h-2.393c-0.55,0-1.45,0-2,0h-2.391c-0.55,0-0.991,0.567-0.98,1.117l0.059,3.006
			c0.011,0.55-0.336,1.029-0.77,1.029s-0.983-0.391-1.221-0.887l-1.506-3.253c-0.237-0.496-0.882-1.012-1.432-1.012h-5.994
			c-0.55,0-0.813,0.527-0.586,1.027l4.797,10.806c0.228,0.5,0.864,1.167,1.414,1.167h8.266c0.55,0,1.45,0,2,0H91.642z"/>
		<path fill="none" stroke="#320392" stroke-width="2" stroke-miterlimit="10" d="M91.642,63.958c0.55,0,1.187-0.608,1.414-1.108
			l4.798-10.765c0.228-0.5-0.036-1.126-0.586-1.126h-5.994c-0.55,0-1.194,0.523-1.432,1.019l-1.505,3.202
			c-0.237,0.496-0.787,0.931-1.222,0.931s-0.781-0.435-0.77-0.985l0.059-3.057c0.012-0.55-0.43-1.11-0.979-1.11h-2.393
			c-0.55,0-1.45,0-2,0h-2.391c-0.55,0-0.991,0.567-0.98,1.117l0.059,3.006c0.011,0.55-0.336,1.029-0.77,1.029
			s-0.983-0.391-1.221-0.887l-1.506-3.253c-0.237-0.496-0.882-1.012-1.432-1.012h-5.994c-0.55,0-0.813,0.527-0.586,1.027
			l4.797,10.806c0.228,0.5,0.864,1.167,1.414,1.167h8.266c0.55,0,1.45,0,2,0H91.642z"/>
	</g>
	<polygon fill="#FFFFFF" stroke="#320392" stroke-width="2" stroke-miterlimit="10" points="100.535,107.958 63.427,107.958 
		71.124,66.958 92.083,66.958 	"/>
	<path fill="#FFFFFF" stroke="#000000" stroke-miterlimit="10" d="M81.569,121.699"/>
	<path fill="#320392" stroke="#320392" stroke-width="2" stroke-miterlimit="10" d="M59.644,112.958v-1.361
		c0-5.352,5.396-10.639,10.479-10.639h25.457c5.082,0,7.064,5.287,7.064,10.639v1.361H59.644z"/>
	<path fill="#320392" stroke="#320392" stroke-width="2" stroke-miterlimit="10" d="M94.644,64.997c0,1.714-1.106,2.962-3.128,2.962
		H71.622c-2.021,0-3.979-1.248-3.979-2.962v-0.086c0-1.714,1.957-2.952,3.979-2.952h19.894c2.021,0,3.128,1.238,3.128,2.952V64.997z
		"/>
	<g>
		<path fill="#FFFFFF" d="M72.701,54.958c0.55,0,1.187-0.654,1.414-1.155l6.622-14.748c0.228-0.501-0.036-1.098-0.586-1.098h-8.588
			c-0.55,0-1.194,0.471-1.432,0.967l-2.272,4.939c-0.237,0.496-0.882,1.094-1.432,1.094h-0.091c-0.55,0-0.991-0.609-0.98-1.159
			l0.092-4.696c0.011-0.55-0.431-1.145-0.98-1.145h-3.816c-0.55,0-1.45,0-2,0h-3.816c-0.55,0-0.991,0.515-0.98,1.065l0.091,4.744
			c0.011,0.55-0.43,1.191-0.98,1.191h-0.092c-0.55,0-1.194-0.565-1.432-1.061l-2.272-4.893c-0.237-0.496-0.882-1.046-1.432-1.046
			h-8.587c-0.55,0-0.813,0.475-0.586,0.975l6.621,14.837c0.228,0.501,0.864,1.188,1.414,1.188h11.594c0.55,0,1.45,0,2,0H72.701z"/>
		<path fill="none" stroke="#320392" stroke-width="2" stroke-miterlimit="10" d="M72.701,54.958c0.55,0,1.187-0.654,1.414-1.155
			l6.622-14.748c0.228-0.501-0.036-1.098-0.586-1.098h-8.588c-0.55,0-1.194,0.471-1.432,0.967l-2.272,4.939
			c-0.237,0.496-0.882,1.094-1.432,1.094h-0.091c-0.55,0-0.991-0.609-0.98-1.159l0.092-4.696c0.011-0.55-0.431-1.145-0.98-1.145
			h-3.816c-0.55,0-1.45,0-2,0h-3.816c-0.55,0-0.991,0.515-0.98,1.065l0.091,4.744c0.011,0.55-0.43,1.191-0.98,1.191h-0.092
			c-0.55,0-1.194-0.565-1.432-1.061l-2.272-4.893c-0.237-0.496-0.882-1.046-1.432-1.046h-8.587c-0.55,0-0.813,0.475-0.586,0.975
			l6.621,14.837c0.228,0.501,0.864,1.188,1.414,1.188h11.594c0.55,0,1.45,0,2,0H72.701z"/>
	</g>
	<polygon fill="#FFFFFF" stroke="#320392" stroke-width="2" stroke-miterlimit="10" points="84.153,114.958 35.012,114.958 
		45.204,58.958 72.96,58.958 	"/>
	<path fill="#FFFFFF" stroke="#000000" stroke-miterlimit="10" d="M59.037,131.458"/>
	<path fill="#9881C8" stroke="#320392" stroke-width="2" stroke-miterlimit="10" d="M30.644,119.958v-1.878
		c0-7.086,6.504-12.122,13.234-12.122H77.59c6.731,0,10.054,5.036,10.054,12.122v1.878H30.644z"/>
	<path fill="#9881C8" stroke="#320392" stroke-width="2" stroke-miterlimit="10" d="M76.644,56.37c0,2.269-1.758,4.589-4.434,4.589
		H45.864c-2.677,0-5.221-2.32-5.221-4.589v-0.115c0-2.269,2.544-4.296,5.221-4.296H72.21c2.676,0,4.434,2.027,4.434,4.296V56.37z"/>
	<g>
		<circle fill="#BA85FE" cx="59.674" cy="17.794" r="16.836"/>
		<text transform="matrix(1 0 0 1 54.3037 23.813)" font-family="'NotoSans-Regular'" font-size="20.1195">$</text>
		<g>
			<g>
				<g>
					<path d="M47.167,14.267c0.967,0,0.967-1.5,0-1.5S46.2,14.267,47.167,14.267L47.167,14.267z"/>
				</g>
			</g>
			<g>
				<g>
					<path d="M45.871,17.271c0.012,1.719,0.165,3.428,0.703,5.068c0.3,0.915,1.749,0.523,1.446-0.398
						c-0.498-1.521-0.638-3.077-0.649-4.67C47.364,16.304,45.864,16.303,45.871,17.271L45.871,17.271z"/>
				</g>
			</g>
		</g>
	</g>
	<g>
		<g>
			<path fill="#320392" d="M74.541,12.695c4.568,16.377-15.19,27.852-26.855,15.261c-5.263-5.681-4.572-14.562,0-20.323
				c5.185-6.533,14.53-6.895,21.156-2.604c1.222,0.792,2.348-1.157,1.135-1.942c-16.61-10.758-35.968,8.778-24.862,25.219
				c4.539,6.719,14.344,9.419,21.679,5.973c8.659-4.067,12.462-13.058,9.917-22.182C76.321,10.701,74.15,11.295,74.541,12.695
				L74.541,12.695z"/>
		</g>
	</g>
	<text transform="matrix(1 0 0 1 54.3037 23.813)" fill="#FFFFFF" font-family="'NotoSans-Regular'" font-size="20.1195">$</text>
	<g>
		<g>
			<g>
				<path fill="#320392" d="M47.167,14.267c0.967,0,0.967-1.5,0-1.5S46.2,14.267,47.167,14.267L47.167,14.267z"/>
			</g>
		</g>
		<g>
			<g>
				<path fill="#320392" d="M45.871,17.271c0.012,1.719,0.165,3.428,0.703,5.068c0.3,0.915,1.749,0.523,1.446-0.398
					c-0.498-1.521-0.638-3.077-0.649-4.67C47.364,16.304,45.864,16.303,45.871,17.271L45.871,17.271z"/>
			</g>
		</g>
	</g>
	<g>
		<g>
			<path fill="#320392" d="M33.52,81.028c-0.733,3.934-1.466,7.867-2.199,11.801c-0.176,0.945,1.27,1.349,1.446,0.398
				c0.733-3.934,1.466-7.867,2.199-11.801C35.143,80.481,33.697,80.078,33.52,81.028L33.52,81.028z"/>
		</g>
	</g>
	<g>
		<g>
			<path fill="#320392" d="M35.323,71.184c-0.39,2.092-0.78,4.183-1.17,6.274c-0.176,0.945,1.269,1.349,1.446,0.398
				c0.39-2.092,0.78-4.183,1.17-6.274C36.945,70.637,35.5,70.234,35.323,71.184L35.323,71.184z"/>
		</g>
	</g>
	<g>
		<g>
			<path fill="#320392" d="M69.706,126.552c6.083,0,12.167,0,18.25,0c0.968,0,0.968-1.5,0-1.5c-6.083,0-12.167,0-18.25,0
				C68.738,125.052,68.738,126.552,69.706,126.552L69.706,126.552z"/>
		</g>
	</g>
	<g>
		<g>
			<path fill="#320392" d="M66.8,125.146c-0.594,0-1.188,0-1.781,0c-0.968,0-0.968,1.5,0,1.5c0.594,0,1.188,0,1.781,0
				C67.768,126.646,67.768,125.146,66.8,125.146L66.8,125.146z"/>
		</g>
	</g>
	<g>
		<g>
			<path fill="#320392" d="M61.706,126.677c0.968,0,0.968-1.5,0-1.5C60.739,125.177,60.739,126.677,61.706,126.677L61.706,126.677z"
				/>
		</g>
	</g>
	<g>
		<g>
			<path fill="#320392" d="M36.561,68.625c0.967,0,0.967-1.5,0-1.5S35.593,68.625,36.561,68.625L36.561,68.625z"/>
		</g>
	</g>
</g>
</svg>
