<?xml version="1.0" encoding="utf-8"?>
<!-- Generator: Adobe Illustrator 16.0.0, SVG Export Plug-In . SVG Version: 6.00 Build 0)  -->
<!DOCTYPE svg PUBLIC "-//W3C//DTD SVG 1.1//EN" "http://www.w3.org/Graphics/SVG/1.1/DTD/svg11.dtd">
<svg version="1.1" id="Layer_1" xmlns="http://www.w3.org/2000/svg" xmlns:xlink="http://www.w3.org/1999/xlink" x="0px" y="0px"
	 width="171.82px" height="138.189px" viewBox="0 0 171.82 138.189" enable-background="new 0 0 171.82 138.189"
	 xml:space="preserve">
<g>
	<circle fill="#EFEFF9" cx="83.026" cy="30.563" r="30.562"/>
	<ellipse fill="#EFEFF9" cx="37.794" cy="87.057" rx="37.794" ry="35.617"/>
	<ellipse fill="#EFEFF9" cx="101.655" cy="97.315" rx="52.61" ry="40.874"/>
	<g opacity="0.5">
		<path fill="#320392" d="M124.644,124.247c0,2.762-2.238,5-5,5h-80c-2.761,0-5-2.238-5-5v-87c0-2.761,2.239-5,5-5h80
			c2.762,0,5,2.239,5,5V124.247z"/>
	</g>
	<g>
		<path fill="#FFFFFF" d="M119.644,119.247c0,2.762-2.238,5-5,5h-80c-2.761,0-5-2.238-5-5v-92c0-2.761,2.239-5,5-5h80
			c2.762,0,5,2.239,5,5V119.247z"/>
		<path fill="none" stroke="#320392" stroke-width="2" stroke-miterlimit="10" d="M119.644,119.247c0,2.762-2.238,5-5,5h-80
			c-2.761,0-5-2.238-5-5v-92c0-2.761,2.239-5,5-5h80c2.762,0,5,2.239,5,5V119.247z"/>
	</g>
	<path fill="#BA85FE" stroke="#320392" stroke-width="2" stroke-miterlimit="10" d="M110.644,43.747c0,3.59-2.91,6.5-6.5,6.5h-58
		c-3.59,0-6.5-2.91-6.5-6.5l0,0c0-3.59,2.91-6.5,6.5-6.5h58C107.733,37.247,110.644,40.157,110.644,43.747L110.644,43.747z"/>
	<path fill="#320392" stroke="#320392" stroke-miterlimit="10" d="M58.144,64.718c0,2.018-1.931,4.029-4.313,4.029H43.456
		c-2.382,0-4.313-2.011-4.313-4.029V64.4c0-2.018,1.931-3.654,4.313-3.654h10.375c2.382,0,4.313,1.636,4.313,3.654V64.718z"/>
	<path fill="#320392" stroke="#320392" stroke-miterlimit="10" d="M84.144,64.718c0,2.018-1.931,4.029-4.313,4.029H69.456
		c-2.382,0-4.313-2.011-4.313-4.029V64.4c0-2.018,1.931-3.654,4.313-3.654h10.375c2.382,0,4.313,1.636,4.313,3.654V64.718z"/>
	<path fill="#320392" stroke="#320392" stroke-miterlimit="10" d="M110.144,64.718c0,2.018-1.931,4.029-4.313,4.029H95.456
		c-2.382,0-4.313-2.011-4.313-4.029V64.4c0-2.018,1.931-3.654,4.313-3.654h10.375c2.382,0,4.313,1.636,4.313,3.654V64.718z"/>
	<path fill="#320392" stroke="#320392" stroke-miterlimit="10" d="M58.144,85.717c0,2.019-1.931,4.029-4.313,4.029H43.456
		c-2.382,0-4.313-2.011-4.313-4.029v-0.316c0-2.019,1.931-3.654,4.313-3.654h10.375c2.382,0,4.313,1.636,4.313,3.654V85.717z"/>
	<path fill="#320392" stroke="#320392" stroke-miterlimit="10" d="M84.144,85.717c0,2.019-1.931,4.029-4.313,4.029H69.456
		c-2.382,0-4.313-2.011-4.313-4.029v-0.316c0-2.019,1.931-3.654,4.313-3.654h10.375c2.382,0,4.313,1.636,4.313,3.654V85.717z"/>
	<path fill="#320392" stroke="#320392" stroke-miterlimit="10" d="M110.144,85.717c0,2.019-1.931,4.029-4.313,4.029H95.456
		c-2.382,0-4.313-2.011-4.313-4.029v-0.316c0-2.019,1.931-3.654,4.313-3.654h10.375c2.382,0,4.313,1.636,4.313,3.654V85.717z"/>
	<path fill="#320392" stroke="#320392" stroke-miterlimit="10" d="M58.144,107.717c0,2.019-1.931,4.029-4.313,4.029H43.456
		c-2.382,0-4.313-2.011-4.313-4.029v-0.316c0-2.019,1.931-3.654,4.313-3.654h10.375c2.382,0,4.313,1.636,4.313,3.654V107.717z"/>
	<path fill="#320392" stroke="#320392" stroke-miterlimit="10" d="M84.144,107.717c0,2.019-1.931,4.029-4.313,4.029H69.456
		c-2.382,0-4.313-2.011-4.313-4.029v-0.316c0-2.019,1.931-3.654,4.313-3.654h10.375c2.382,0,4.313,1.636,4.313,3.654V107.717z"/>
	<g>
		<path fill="#320392" stroke="#320392" stroke-miterlimit="10" d="M110.144,107.717c0,2.019-1.931,4.029-4.313,4.029H95.456
			c-2.382,0-4.313-2.011-4.313-4.029v-0.316c0-2.019,1.931-3.654,4.313-3.654h10.375c2.382,0,4.313,1.636,4.313,3.654V107.717z"/>
	</g>
	<g>
		<g>
			<path d="M135.951,34.559c2.16-0.016,4.319-0.032,6.479-0.048c0.483-0.003,0.483-0.753,0-0.75
				c-2.16,0.016-4.319,0.032-6.479,0.048C135.468,33.812,135.468,34.562,135.951,34.559L135.951,34.559z"/>
		</g>
	</g>
	<g>
		<g>
			<path d="M137.31,36.726c1.229,0.004,2.459,0.009,3.688,0.013c0.483,0.002,0.483-0.748,0-0.75
				c-1.229-0.004-2.459-0.009-3.688-0.013C136.826,35.974,136.826,36.724,137.31,36.726L137.31,36.726z"/>
		</g>
	</g>
	<g>
		<g>
			<path d="M149.33,75.739c-2.009,0.102-4.018,0.203-6.026,0.305c-0.481,0.024-0.483,0.774,0,0.75
				c2.009-0.102,4.018-0.203,6.026-0.305C149.812,76.464,149.813,75.714,149.33,75.739L149.33,75.739z"/>
		</g>
	</g>
	<g>
		<g>
			<path d="M147.989,73.643c-0.988,0-1.976,0-2.964,0c-0.483,0-0.483,0.75,0,0.75c0.988,0,1.976,0,2.964,0
				C148.473,74.393,148.473,73.643,147.989,73.643L147.989,73.643z"/>
		</g>
	</g>
	<g>
		<g>
			<path fill="#320392" d="M22.394,43.747c0,5.056,0,10.113,0,15.169c0,0.967,1.5,0.967,1.5,0c0-5.056,0-10.113,0-15.169
				C23.894,42.779,22.394,42.779,22.394,43.747L22.394,43.747z"/>
		</g>
	</g>
	<g>
		<g>
			<path fill="#320392" d="M22.394,63.247c0,12.667,0,25.333,0,38c0,0.968,1.5,0.968,1.5,0c0-12.667,0-25.333,0-38
				C23.894,62.279,22.394,62.279,22.394,63.247L22.394,63.247z"/>
		</g>
	</g>
	<g>
		<g>
			<path fill="#320392" d="M48.811,29.164c4.889,0,9.778,0,14.667,0c0.967,0,0.967-1.5,0-1.5c-4.889,0-9.778,0-14.667,0
				C47.843,27.664,47.843,29.164,48.811,29.164L48.811,29.164z"/>
		</g>
	</g>
	<g>
		<g>
			<path fill="#320392" d="M85.811,29.164c4.889,0,9.778,0,14.667,0c0.968,0,0.968-1.5,0-1.5c-4.889,0-9.778,0-14.667,0
				C84.843,27.664,84.843,29.164,85.811,29.164L85.811,29.164z"/>
		</g>
	</g>
	<g>
		<g>
			<path fill="#320392" d="M69.811,29.372c1.451,0,1.451-2.25,0-2.25S68.359,29.372,69.811,29.372L69.811,29.372z"/>
		</g>
	</g>
	<g>
		<g>
			<path fill="#320392" d="M74.811,29.372c1.451,0,1.451-2.25,0-2.25S73.359,29.372,74.811,29.372L74.811,29.372z"/>
		</g>
	</g>
	<g>
		<g>
			<path fill="#320392" d="M79.811,29.372c1.451,0,1.451-2.25,0-2.25S78.359,29.372,79.811,29.372L79.811,29.372z"/>
		</g>
	</g>
	<g>
		<path fill="#BA85FE" d="M120.471,30.68c-1.639,0.19-3.066,1.693-3.172,3.34l-1.121,17.443c-0.105,1.646,0.756,3.954,1.915,5.128
			l25.638,25.965c1.159,1.174,3.068,1.187,4.242,0.027l21.959-21.681c1.174-1.159,1.187-3.068,0.027-4.243l-25.998-26.331
			c-1.159-1.174-3.448-1.979-5.087-1.789L120.471,30.68z"/>
		<path fill="none" stroke="#320392" stroke-width="2" stroke-miterlimit="10" d="M120.471,30.68
			c-1.639,0.19-3.066,1.693-3.172,3.34l-1.121,17.443c-0.105,1.646,0.756,3.954,1.915,5.128l25.638,25.965
			c1.159,1.174,3.068,1.187,4.242,0.027l21.959-21.681c1.174-1.159,1.187-3.068,0.027-4.243l-25.998-26.331
			c-1.159-1.174-3.448-1.979-5.087-1.789L120.471,30.68z"/>
	</g>
	<circle fill="#FFFFFF" stroke="#320392" stroke-miterlimit="10" cx="128.146" cy="41.731" r="4.167"/>
	
		<text transform="matrix(0.6955 -0.7185 0.7185 0.6955 147.0439 71.0649)" fill="#FFFFFF" font-family="'NotoSans-Regular'" font-size="30.2866">$</text>
	<path fill="#FFFFFF" stroke="#320392" stroke-width="2" stroke-miterlimit="10" d="M120.214,32.467
		c0.734,0.72,0.745,1.898,0.025,2.632l-0.194,0.198c-0.72,0.733-1.899,0.745-2.632,0.025l-2.34-2.295
		c-0.734-0.72-0.745-1.898-0.025-2.632l0.194-0.198c0.72-0.733,1.899-0.745,2.632-0.025L120.214,32.467z"/>
	<g>
		<g>
			<path fill="#320392" d="M23.311,105.331c0.967,0,0.967-1.5,0-1.5S22.343,105.331,23.311,105.331L23.311,105.331z"/>
		</g>
	</g>
</g>
<rect id="_x3C_Slice_x3E_" x="-0.356" y="-0.753" fill="none" width="173" height="139"/>
</svg>
