<?xml version="1.0" encoding="utf-8"?>
<!-- Generator: Adobe Illustrator 16.0.0, SVG Export Plug-In . SVG Version: 6.00 Build 0)  -->
<!DOCTYPE svg PUBLIC "-//W3C//DTD SVG 1.1//EN" "http://www.w3.org/Graphics/SVG/1.1/DTD/svg11.dtd">
<svg version="1.1" id="Layer_1" xmlns="http://www.w3.org/2000/svg" xmlns:xlink="http://www.w3.org/1999/xlink" x="0px" y="0px"
	 width="129.401px" height="95.231px" viewBox="0 0 129.401 95.231" enable-background="new 0 0 129.401 95.231"
	 xml:space="preserve">
<g>
	<ellipse fill="#EFEFF9" cx="64.659" cy="47.811" rx="35.382" ry="35.617"/>
	<ellipse fill="#EFEFF9" cx="28.317" cy="67.598" rx="24.317" ry="24.479"/>
	<ellipse fill="#EFEFF9" cx="109.977" cy="67.386" rx="15.167" ry="15.268"/>
	<g>
		<polygon fill="#D7F5FF" stroke="#320392" stroke-width="2" stroke-miterlimit="10" points="94.126,21.41 89.063,16 80.009,16 
			79.462,16 70.618,16 65.45,21.41 79.788,34.009 		"/>
		<path fill="#FFFFFF" stroke="#320392" stroke-width="2" stroke-miterlimit="10" d="M65.45,21.16"/>
		<line fill="none" stroke="#320392" stroke-width="2" stroke-miterlimit="10" x1="65.453" y1="21.267" x2="94.053" y2="21.224"/>
		<line fill="none" stroke="#320392" stroke-width="2" stroke-miterlimit="10" x1="79.788" y1="33.759" x2="70.618" y2="15.5"/>
		<line fill="none" stroke="#320392" stroke-width="2" stroke-miterlimit="10" x1="79.462" y1="15.5" x2="79.788" y2="33.959"/>
		<line fill="none" stroke="#320392" stroke-width="2" stroke-miterlimit="10" x1="89.063" y1="15.5" x2="79.788" y2="33.558"/>
		<path fill="none" stroke="#320392" stroke-width="2" stroke-miterlimit="10" d="M73.515,21.267"/>
		<line fill="none" stroke="#320392" stroke-width="2" stroke-miterlimit="10" x1="73.515" y1="21.267" x2="79.462" y2="15.687"/>
		<line fill="none" stroke="#320392" stroke-width="2" stroke-miterlimit="10" x1="86.124" y1="21.224" x2="79.468" y2="15.822"/>
	</g>
	<g>
		<polygon fill="#D7F5FF" stroke="#320392" stroke-width="2" stroke-miterlimit="10" points="84.934,9.215 77.361,1 63.82,1 
			63.001,1 49.775,1 42.045,9.215 63.49,28.059 		"/>
		<path fill="#FFFFFF" stroke="#320392" stroke-width="2" stroke-miterlimit="10" d="M42.045,8.965"/>
		<line fill="none" stroke="#320392" stroke-width="2" stroke-miterlimit="10" x1="42.05" y1="9.124" x2="84.824" y2="9.061"/>
		<line fill="none" stroke="#320392" stroke-width="2" stroke-miterlimit="10" x1="63.49" y1="27.809" x2="49.775" y2="0.5"/>
		<line fill="none" stroke="#320392" stroke-width="2" stroke-miterlimit="10" x1="63.001" y1="0.5" x2="63.49" y2="28.107"/>
		<line fill="none" stroke="#320392" stroke-width="2" stroke-miterlimit="10" x1="77.361" y1="0.5" x2="63.49" y2="27.508"/>
		<path fill="none" stroke="#320392" stroke-width="2" stroke-miterlimit="10" d="M54.106,9.124"/>
		<line fill="none" stroke="#320392" stroke-width="2" stroke-miterlimit="10" x1="54.106" y1="9.124" x2="63.001" y2="0.779"/>
		<line fill="none" stroke="#320392" stroke-width="2" stroke-miterlimit="10" x1="72.965" y1="9.061" x2="63.01" y2="0.981"/>
	</g>
	<g>
		<g>
			<g>
				<rect x="67.644" y="40" fill="#FFFFFF" width="41" height="54"/>
				<g>
					<path fill="#320392" d="M108.235,92.731c-13.49,0-26.981,0-40.472,0c0.417,0.417,0.833,0.833,1.25,1.25
						c0-18.16,0-36.321,0-54.481c-0.417,0.417-0.833,0.833-1.25,1.25c13.49,0,26.981,0,40.472,0c-0.417-0.417-0.833-0.833-1.25-1.25
						c0,18.16,0,36.321,0,54.481c0,1.612,2.5,1.612,2.5,0c0-18.16,0-36.321,0-54.481c0-0.682-0.568-1.25-1.25-1.25
						c-13.49,0-26.981,0-40.472,0c-0.682,0-1.25,0.568-1.25,1.25c0,18.16,0,36.321,0,54.481c0,0.682,0.568,1.25,1.25,1.25
						c13.49,0,26.981,0,40.472,0C109.848,95.231,109.848,92.731,108.235,92.731z"/>
				</g>
			</g>
			<g>
				<rect x="22.644" y="40" fill="#FFFFFF" width="53" height="54"/>
				<g>
					<path fill="#320392" d="M75.525,92.731c-17.556,0-35.112,0-52.667,0c0.417,0.417,0.833,0.833,1.25,1.25
						c0-18.16,0-36.321,0-54.481c-0.417,0.417-0.833,0.833-1.25,1.25c17.556,0,35.112,0,52.667,0
						c-0.417-0.417-0.833-0.833-1.25-1.25c0,18.16,0,36.321,0,54.481c0,1.612,2.5,1.612,2.5,0c0-18.16,0-36.321,0-54.481
						c0-0.682-0.568-1.25-1.25-1.25c-17.556,0-35.112,0-52.667,0c-0.681,0-1.25,0.568-1.25,1.25c0,18.16,0,36.321,0,54.481
						c0,0.682,0.569,1.25,1.25,1.25c17.556,0,35.112,0,52.667,0C77.138,95.231,77.138,92.731,75.525,92.731z"/>
				</g>
			</g>
		</g>
		<g>
			<polygon fill="#94CBF7" points="59.46,63 8.932,63 23.143,40 74.349,40 			"/>
			<g>
				<path fill="#320392" d="M59.46,61.625c-16.843,0-33.686,0-50.529,0c0.324,0.564,0.647,1.129,0.971,1.692
					c3.757-6.146,7.515-12.294,11.272-18.44c0.786-1.285,1.571-2.571,2.357-3.856c0.874-1.43,0.067-0.396-0.162-0.396
					c2.287,0,4.573,0,6.859,0c14.707,0,29.413,0,44.119,0c-0.324-0.564-0.647-1.128-0.972-1.693
					c-4.963,7.75-9.925,15.5-14.888,23.25c-0.785,1.226,1.163,2.353,1.942,1.135c4.963-7.75,9.926-15.5,14.889-23.25
					c0.466-0.728-0.146-1.693-0.972-1.693c-15.164,0-30.328,0-45.492,0c-1.896,0-3.792,0-5.688,0c-1.391,0-2.57,3.13-3.121,4.032
					c-4.029,6.592-8.059,13.184-12.087,19.776c-0.448,0.732,0.131,1.692,0.971,1.692c16.843,0,33.686,0,50.529,0
					C60.912,63.875,60.912,61.625,59.46,61.625z"/>
			</g>
		</g>
		<g>
			<polygon fill="#94CBF7" points="85.498,63 117.413,63 108.437,40 76.096,40 			"/>
			<g>
				<path fill="#320392" d="M85.498,63.875c10.639,0,21.276,0,31.915,0c0.676,0,1.353-0.729,1.085-1.424
					c-2.992-7.75-5.984-15.5-8.977-23.25c-0.184-0.474-0.546-0.826-1.085-0.826c-10.78,0-21.561,0-32.341,0
					c-0.667,0-1.364,0.732-1.085,1.424c3.134,7.75,6.269,15.5,9.402,23.25c0.537,1.327,2.714,0.748,2.17-0.598
					c-3.134-7.75-6.269-15.5-9.402-23.25c-0.361,0.475-0.724,0.949-1.085,1.424c10.335,0,20.67,0,31.005,0
					c2.213,0-0.015-1.515,0.677,0.276c1.003,2.598,2.006,5.195,3.009,7.793c1.848,4.785,3.694,9.57,5.542,14.355
					c0.361-0.475,0.724-0.949,1.085-1.424c-10.639,0-21.276,0-31.915,0C84.047,61.625,84.047,63.875,85.498,63.875z"/>
			</g>
		</g>
	</g>
	<g>
		<g>
			<path fill="#320392" d="M28.319,77.751c5.045,0,10.09,0,15.135,0c0.967,0,0.967-1.5,0-1.5c-5.045,0-10.09,0-15.135,0
				C27.352,76.251,27.352,77.751,28.319,77.751L28.319,77.751z"/>
		</g>
	</g>
	<g>
		<g>
			<path fill="#320392" d="M28.319,82.751c3.277,0,6.553,0,9.83,0c0.967,0,0.967-1.5,0-1.5c-3.277,0-6.553,0-9.83,0
				C27.352,81.251,27.352,82.751,28.319,82.751L28.319,82.751z"/>
		</g>
	</g>
	<g>
		<g>
			<path fill="#320392" d="M41.114,82.751c0.967,0,0.967-1.5,0-1.5S40.146,82.751,41.114,82.751L41.114,82.751z"/>
		</g>
	</g>
	<g>
		<g>
			<path fill="#320392" d="M43.767,82.751c2.86,0,5.721,0,8.581,0c0.967,0,0.967-1.5,0-1.5c-2.86,0-5.721,0-8.581,0
				C42.799,81.251,42.799,82.751,43.767,82.751L43.767,82.751z"/>
		</g>
	</g>
	<g>
		<g>
			<path fill="#320392" d="M28.475,87.751c1.612,0,3.225,0,4.837,0c0.967,0,0.967-1.5,0-1.5c-1.612,0-3.225,0-4.837,0
				C27.508,86.251,27.508,87.751,28.475,87.751L28.475,87.751z"/>
		</g>
	</g>
	<g>
		<g>
			<path fill="#320392" d="M35.965,87.751c1.612,0,3.225,0,4.837,0c0.967,0,0.967-1.5,0-1.5c-1.612,0-3.225,0-4.837,0
				C34.998,86.251,34.998,87.751,35.965,87.751L35.965,87.751z"/>
		</g>
	</g>
	<g>
		<g>
			<path fill="#320392" d="M43.454,87.751c3.095,0,6.189,0,9.284,0c0.967,0,0.967-1.5,0-1.5c-3.095,0-6.189,0-9.284,0
				C42.487,86.251,42.487,87.751,43.454,87.751L43.454,87.751z"/>
		</g>
	</g>
</g>
</svg>
